<?xml version="1.0" standalone="no"?>
<!DOCTYPE svg PUBLIC "-//W3C//DTD SVG 20010904//EN"
 "http://www.w3.org/TR/2001/REC-SVG-20010904/DTD/svg10.dtd">
<svg version="1.0" xmlns="http://www.w3.org/2000/svg"
 width="256.000000pt" height="256.000000pt" viewBox="0 0 256.000000 256.000000"
 preserveAspectRatio="xMidYMid meet">

<g transform="translate(0.000000,256.000000) scale(0.100000,-0.100000)"
fill="#000000" stroke="none">
<path d="M240 2435 l0 -115 -115 0 -115 0 0 -115 0 -115 115 0 115 0 0 -115 0
-115 -115 0 -115 0 0 -115 0 -115 115 0 115 0 0 -115 0 -115 -115 0 -115 0 0
-120 0 -120 115 0 115 0 0 -115 0 -115 -115 0 -115 0 0 -115 0 -115 115 0 115
0 0 -115 0 -115 -115 0 -115 0 0 -115 0 -115 115 0 115 0 0 -115 0 -115 115 0
115 0 0 115 0 115 115 0 115 0 0 -115 0 -115 115 0 115 0 0 115 0 115 115 0
115 0 0 -115 0 -115 120 0 120 0 0 115 0 115 115 0 115 0 0 -115 0 -115 115 0
115 0 0 115 0 115 115 0 115 0 0 -115 0 -115 115 0 115 0 0 115 0 115 115 0
115 0 0 115 0 115 -115 0 -115 0 0 115 0 115 115 0 115 0 0 115 0 115 -115 0
-115 0 0 115 0 115 115 0 116 0 -3 117 -3 118 -112 3 -113 3 0 114 0 115 115
0 115 0 0 115 0 115 -115 0 -115 0 0 115 0 115 115 0 115 0 0 115 0 115 -115
0 -115 0 0 115 0 115 -115 0 -115 0 0 -115 0 -115 -115 0 -115 0 0 115 0 115
-115 0 -115 0 0 -115 0 -115 -115 0 -115 0 0 115 0 115 -120 0 -120 0 0 -115
0 -115 -115 0 -115 0 0 115 0 115 -115 0 -115 0 0 -115 0 -115 -115 0 -115 0
0 115 0 115 -115 0 -115 0 0 -115z m230 -230 l0 -115 115 0 115 0 0 115 0 115
115 0 115 0 0 -115 0 -115 115 0 115 0 0 -115 0 -115 -115 0 -115 0 0 -115 0
-115 115 0 114 0 3 113 3 112 118 3 117 3 0 114 0 114 -117 3 -118 3 -3 113
-3 112 121 0 122 0 -2 -42 c-1 -24 -1 -76 -1 -115 l1 -73 115 0 115 0 0 115 0
115 115 0 115 0 0 -115 0 -115 115 0 115 0 0 115 0 115 115 0 115 0 0 -115 0
-115 -115 0 -115 0 0 -115 0 -115 115 0 115 0 0 -115 0 -115 -115 0 -115 0 0
-115 0 -115 115 0 115 0 0 -120 0 -120 -115 0 -115 0 0 -115 0 -115 115 0 115
0 0 -115 0 -115 -115 0 -115 0 0 -115 0 -115 115 0 115 0 0 -115 0 -115 -115
0 -115 0 0 115 0 115 -115 0 -115 0 0 -115 0 -115 -115 0 -115 0 0 115 0 115
-115 0 -115 0 0 -115 0 -115 -120 0 -120 0 0 115 0 115 -115 0 -115 0 0 -115
0 -115 -115 0 -115 0 0 115 0 115 -115 0 -115 0 0 -115 0 -115 -115 0 -115 0
0 115 0 115 115 0 115 0 0 115 0 115 -115 0 -115 0 0 115 0 115 115 0 115 0 0
115 0 115 -115 0 -115 0 0 120 0 120 115 0 115 0 0 115 0 115 -115 0 -115 0 0
115 0 115 115 0 115 0 0 115 0 115 -115 0 -115 0 0 115 0 115 115 0 115 0 0
-115z"/>
<path d="M700 1975 l0 -115 -115 0 -115 0 0 -115 0 -115 115 0 115 0 0 -115 0
-115 -115 0 -115 0 0 -120 0 -120 115 0 115 0 0 -115 0 -115 -115 0 -115 0 0
-115 0 -115 115 0 115 0 0 -115 0 -115 115 0 115 0 0 115 0 115 115 0 115 0 0
-115 0 -115 120 0 120 0 0 115 0 115 115 0 115 0 0 -115 0 -115 115 0 115 0 0
115 0 115 115 0 115 0 0 115 0 115 -115 0 -115 0 0 115 0 115 115 0 115 0 0
120 0 120 -115 0 -115 0 0 115 0 115 115 0 115 0 0 115 0 115 -115 0 -115 0 0
115 0 115 -115 0 -115 0 0 -115 0 -115 -115 0 -115 0 0 -115 0 -115 -120 0
-120 0 0 -115 0 -115 -115 0 -115 0 0 115 0 115 -115 0 -115 0 0 115 0 115
115 0 115 0 0 115 0 115 -115 0 -115 0 0 -115z m1160 -230 l0 -115 -115 0
-115 0 0 115 0 115 115 0 115 0 0 -115z m-232 -232 l3 -113 114 0 115 0 0
-120 0 -120 -115 0 -114 0 -3 -112 -3 -113 -112 -3 -113 -3 0 -114 0 -115
-120 0 -120 0 0 115 0 115 -115 0 -115 0 0 -115 0 -115 -115 0 -115 0 0 115 0
115 115 0 115 0 0 115 0 114 -112 3 -113 3 0 115 0 115 112 3 112 3 3 -118 3
-118 113 -3 112 -3 0 -114 0 -115 120 0 120 0 0 115 0 115 115 0 115 0 0 120
0 120 -115 0 -115 0 0 115 0 116 113 -3 112 -3 3 -112z m-233 -233 l0 -115
-115 0 -115 0 -3 104 c-1 58 0 111 2 118 4 11 31 13 118 11 l113 -3 0 -115z
m465 -465 l0 -115 -115 0 -115 0 0 115 0 115 115 0 115 0 0 -115z"/>
</g>
</svg>
